<svg width="34" height="39" viewBox="0 0 34 39" fill="none" xmlns="http://www.w3.org/2000/svg">
<path d="M27.2778 6.33131C27.2181 6.31635 27.156 6.31469 27.0956 6.32649C27.0353 6.33828 26.9783 6.36324 26.9287 6.39957L2.94575 23.2155C2.87518 23.2658 2.82195 23.3368 2.79346 23.4187L0.836718 29.3876C0.814805 29.4502 0.808117 29.5172 0.817211 29.583C0.826305 29.6488 0.850903 29.7115 0.889002 29.7659C0.927101 29.8202 0.977605 29.8647 1.03631 29.8957C1.09502 29.9267 1.16027 29.9433 1.22666 29.9441L7.49733 30.1375C7.58598 30.1408 7.67338 30.1158 7.74691 30.0662L31.7298 13.2503C31.7754 13.2185 31.8142 13.1781 31.8439 13.1312C31.8737 13.0844 31.8938 13.0321 31.9032 12.9774C31.9126 12.9227 31.9109 12.8667 31.8985 12.8126C31.886 12.7585 31.8628 12.7075 31.8304 12.6625L27.5165 6.50014C27.4598 6.41699 27.3751 6.35706 27.2778 6.33131ZM27.0654 7.31419L30.9158 12.7992L28.8562 14.249L25.0058 8.76402L27.0654 7.31419ZM24.3229 9.23939L28.1733 14.7244L7.39785 29.2979L1.81205 29.1205L3.53004 23.8193L24.3229 9.23939Z" fill="black"/>
</svg>
