<svg width="44" height="42" viewBox="0 0 44 42" fill="none" xmlns="http://www.w3.org/2000/svg">
<path d="M10 26.5H34V41H10V26.5Z" fill="#84CEE5"/>
<path d="M15.7022 19.8727L16.0615 19.738L16.3453 19.4799L21.0016 15.2469L25.7902 16.7203L28.4 20.2L28.7048 20.6064L29.1667 20.8181L40.104 25.8311L40.3242 28.4736L3.5539 28.0306L4.25275 25.2352L7.91783 22.7918L15.7022 19.8727Z" stroke="#84CEE5" stroke-width="4"/>
<path d="M22 0C19.3922 0 17.125 1.85689 17.125 4.32812C17.125 6.80649 18.3795 8.18379 19.3438 9.17188C20.1957 10.0448 20.8313 10.6249 20.9688 12.125C18.6352 12.4496 16.7467 13.8596 15.7031 15.7656C15.6996 15.772 15.691 15.7749 15.6875 15.7812C15.5799 15.9774 15.4818 16.1905 15.4219 16.4062C15.3582 16.4481 14.9314 17.0392 13.8906 17.5938C12.6892 18.2339 10.8778 18.9022 9 19.625C7.12578 20.3465 5.13278 21.1359 3.39062 22.4062C1.60781 23.7062 0 25.8048 0 28.5C0.00016455 30.07 1.25321 31.3591 2.82812 31.3594H8.5V41C8.50003 41.2652 8.60539 41.5195 8.79292 41.7071C8.98045 41.8946 9.23479 42 9.5 42H34.5C34.7652 42 35.0195 41.8946 35.2071 41.7071C35.3946 41.5195 35.5 41.2652 35.5 41V27.6406H38.3125C38.5174 27.64 38.7172 27.5765 38.8848 27.4586C39.0524 27.3408 39.1798 27.1743 39.2497 26.9816C39.3196 26.789 39.3286 26.5796 39.2756 26.3816C39.2225 26.1837 39.11 26.0069 38.9531 25.875C38.9203 25.8465 38.8137 25.682 38.5 25.4531C37.2731 24.5586 35.5499 23.8142 33.7188 23.1094C31.8937 22.4068 30.0084 21.7516 28.4219 20.9062C26.9614 20.1281 25.7229 19.1635 25.2031 17.7188C25.1859 17.6703 25.165 17.6233 25.1406 17.5781C24.557 16.5043 23.3763 15.7812 22 15.7812C20.6237 15.7812 19.4586 16.5044 18.875 17.5781C18.8506 17.6233 18.8297 17.6703 18.8125 17.7188C18.2927 19.1635 17.0543 20.1281 15.5938 20.9062C14.0072 21.7516 12.122 22.4068 10.2969 23.1094C8.46583 23.8142 6.74256 24.5586 5.51562 25.4531C5.20188 25.682 5.07971 25.8465 5.04688 25.875C4.88897 26.0077 4.77597 26.186 4.72334 26.3854C4.67071 26.5849 4.68104 26.7957 4.7529 26.989C4.82476 27.1824 4.95464 27.3488 5.12475 27.4654C5.29486 27.5821 5.49688 27.6433 5.70312 27.6406H8.5V29.3594H2.82812C2.49082 29.3593 2.00004 28.8813 2 28.5C2 26.605 3.15278 25.055 4.57812 24.0156C6.04413 22.9467 7.86018 22.2155 9.71875 21.5C11.5736 20.786 13.4251 20.1153 14.8438 19.3594C16.2645 18.6024 17.0717 17.9552 17.3438 16.9375H17.3594C17.3605 16.933 17.3582 16.9262 17.3594 16.9219C17.3779 16.8576 17.4056 16.7918 17.4375 16.7344C18.3019 15.144 19.9051 14.0469 22 14.0469C24.0949 14.0469 25.7136 15.144 26.5781 16.7344C26.61 16.7918 26.6377 16.8576 26.6562 16.9219C26.6581 16.929 26.67 16.9305 26.6719 16.9375C26.944 17.9552 27.7512 18.6024 29.1719 19.3594C30.5905 20.1153 32.4419 20.786 34.2969 21.5C36.1554 22.2155 37.9715 22.9467 39.4375 24.0156C40.8606 25.0533 42 26.6009 42 28.5C42 28.8813 41.5092 29.3593 41.1719 29.3594H37.8594C37.7269 29.3575 37.5953 29.382 37.4723 29.4314C37.3494 29.4808 37.2374 29.5542 37.1431 29.6472C37.0487 29.7403 36.9738 29.8511 36.9226 29.9734C36.8715 30.0956 36.8451 30.2269 36.8451 30.3594C36.8451 30.4919 36.8715 30.6231 36.9226 30.7454C36.9738 30.8676 37.0487 30.9785 37.1431 31.0715C37.2374 31.1646 37.3494 31.2379 37.4723 31.2874C37.5953 31.3368 37.7269 31.3612 37.8594 31.3594H41.1719C42.7468 31.3591 43.9998 30.07 44 28.5C44 25.8089 42.4102 23.7079 40.625 22.4062C38.8829 21.1359 36.8898 20.3465 35.0156 19.625C33.1378 18.9022 31.3108 18.2339 30.1094 17.5938C29.0935 17.0524 28.6693 16.488 28.5938 16.4219C28.589 16.4036 28.5851 16.4003 28.5938 16.4062C28.5338 16.1905 28.4357 15.9774 28.3281 15.7812C28.3261 15.7778 28.3301 15.7693 28.3281 15.7656H28.3125C27.2599 13.8433 25.3328 12.4335 22.9688 12.125C22.7817 9.96034 21.6723 8.69423 20.7812 7.78125C19.8053 6.78127 19.125 6.21368 19.125 4.32812C19.125 3.11401 20.3216 2 22 2C23.6784 2 24.8906 3.11401 24.8906 4.32812C24.8888 4.46064 24.9132 4.5922 24.9626 4.71517C25.0121 4.83814 25.0854 4.95006 25.1785 5.04443C25.2715 5.1388 25.3824 5.21373 25.5046 5.26488C25.6269 5.31603 25.7581 5.34237 25.8906 5.34237C26.0231 5.34237 26.1544 5.31603 26.2766 5.26488C26.3989 5.21373 26.5097 5.1388 26.6028 5.04443C26.6958 4.95006 26.7692 4.83814 26.8186 4.71517C26.868 4.5922 26.8925 4.46064 26.8906 4.32812C26.8906 1.85689 24.6078 0 22 0ZM22 17.7812C22.7743 17.7812 23.1094 18.0139 23.3906 18.5312C24.1796 20.5609 25.8716 21.8126 27.4844 22.6719C29.119 23.5427 30.8889 24.1694 32.5469 24.7969H11.4688C13.1268 24.1694 14.8967 23.5427 16.5312 22.6719C18.1441 21.8126 19.836 20.5609 20.625 18.5312C20.9062 18.0139 21.2257 17.7812 22 17.7812ZM10.5 26.7969H33.5V40H10.5V26.7969Z" fill="black"/>
</svg>
